<?xml version="1.0" encoding="iso-8859-1"?>
<!-- Uploaded to: SVG Repo, www.svgrepo.com, Generator: SVG Repo Mixer Tools -->
<!DOCTYPE svg PUBLIC "-//W3C//DTD SVG 1.1//EN" "http://www.w3.org/Graphics/SVG/1.1/DTD/svg11.dtd">
<svg fill="#000000" version="1.1" id="Capa_1" xmlns="http://www.w3.org/2000/svg" xmlns:xlink="http://www.w3.org/1999/xlink" 
	 width="800px" height="800px" viewBox="0 0 52.096 52.096"
	 xml:space="preserve">
<g>
	<g>
		<path d="M26.611,25.401c-6.187,0-11.218,5.031-11.218,11.218S20.424,47.84,26.611,47.84c2.645,0,5.07-0.927,6.988-2.459
			c0.272,0.6,0.877,1.018,1.578,1.018c0.963,0,1.739-0.777,1.739-1.738c0-0.741-0.467-1.37-1.12-1.62
			c1.274-1.819,2.03-4.03,2.03-6.418C37.828,30.434,32.796,25.401,26.611,25.401z M26.611,44.958c-4.599,0-8.339-3.739-8.339-8.34
			c0-4.599,3.74-8.338,8.339-8.338c4.598,0,8.338,3.739,8.338,8.338S31.209,44.958,26.611,44.958z"/>
		<path d="M31.705,35.436L28.4,37.354c-0.021,0.014-0.037,0.024-0.058,0.039l-0.511,0.295c-0.157,0.092-0.256,0.26-0.256,0.441
			s0.099,0.35,0.254,0.439l2.879,1.673c0.082,0.047,0.171,0.067,0.259,0.067c0.155,0,0.312-0.072,0.409-0.209
			c0.738-1.006,1.146-2.242,1.146-3.482c0-0.27-0.021-0.542-0.059-0.812c-0.021-0.168-0.13-0.312-0.279-0.388
			C32.031,35.344,31.853,35.35,31.705,35.436z"/>
		<path d="M23.047,32.799l3.278,1.887c0.021,0.011,0.035,0.02,0.054,0.024l0.537,0.31c0.078,0.047,0.166,0.067,0.254,0.067
			c0.088,0,0.178-0.021,0.256-0.067c0.158-0.09,0.256-0.258,0.256-0.44v-3.332c0-0.261-0.197-0.479-0.455-0.507
			c-1.505-0.161-3.035,0.281-4.236,1.215c-0.135,0.104-0.209,0.27-0.195,0.438C22.803,32.561,22.9,32.713,23.047,32.799z"/>
		<path d="M28.849,31.146c-0.155-0.062-0.334-0.047-0.479,0.051c-0.141,0.096-0.225,0.254-0.225,0.424v4.456
			c0,0.183,0.098,0.353,0.256,0.44c0.078,0.045,0.166,0.066,0.254,0.066s0.178-0.021,0.256-0.068l2.881-1.672
			c0.228-0.132,0.316-0.412,0.209-0.65C31.379,32.807,30.259,31.725,28.849,31.146z"/>
		<path d="M30.154,40.458l-3.848-2.235c-0.158-0.09-0.354-0.092-0.512,0c-0.158,0.09-0.256,0.26-0.256,0.44v3.328
			c0,0.262,0.196,0.479,0.457,0.508c0.205,0.021,0.412,0.032,0.613,0.032c1.285,0,2.562-0.438,3.598-1.229
			c0.135-0.104,0.209-0.27,0.197-0.438C30.394,40.695,30.3,40.543,30.154,40.458z"/>
		<path d="M25.621,35.112c0-0.185-0.098-0.353-0.256-0.44l-2.875-1.654c-0.227-0.129-0.516-0.067-0.668,0.145
			c-0.725,1.002-1.125,2.229-1.125,3.459c0,0.254,0.017,0.508,0.047,0.756c0.023,0.17,0.127,0.314,0.279,0.393
			c0.07,0.035,0.148,0.055,0.229,0.055c0.086,0,0.174-0.021,0.252-0.064l3.858-2.199C25.521,35.465,25.621,35.297,25.621,35.112z"/>
		<path d="M24.311,36.689l-2.904,1.654c-0.227,0.129-0.318,0.407-0.215,0.646c0.621,1.413,1.748,2.516,3.18,3.1
			c0.063,0.024,0.127,0.037,0.191,0.037c0.102,0,0.199-0.029,0.285-0.087c0.143-0.097,0.225-0.254,0.225-0.425v-4.48
			c0-0.185-0.096-0.354-0.252-0.441C24.662,36.602,24.469,36.602,24.311,36.689z"/>
		<path d="M26.611,29.008c-4.197,0-7.611,3.414-7.611,7.609s3.414,7.609,7.611,7.609c4.195,0,7.609-3.414,7.609-7.609
			S30.806,29.008,26.611,29.008z M26.611,43.21c-3.634,0-6.591-2.957-6.591-6.592c0-3.634,2.957-6.591,6.591-6.591
			c3.633,0,6.59,2.957,6.59,6.591C33.201,40.253,30.244,43.21,26.611,43.21z"/>
		<path d="M47.789,17.545h-8.215c-0.14,0-0.271,0.023-0.402,0.036V0H3.789v19.601c0.021-0.008,0.039-0.018,0.06-0.024
			c0.241-0.272,0.549-0.514,0.896-0.721V18.17h1.951c0.443-0.076,0.918-0.118,1.418-0.118c0.445,0,0.912,0.041,1.375,0.118h1.881
			l0.535-0.956H9.049v-3.348h3.349v2.591c0.225-0.271,0.534-0.566,0.957-0.827v-1.764h3.346v1.062h0.957v-1.062h3.348v1.062h0.955
			v-1.062h3.351v1.062h0.955v-1.062h3.347v1.871c0.443,0.306,0.754,0.64,0.957,0.924v-2.795h3.346v3.348h-3.012l0.535,0.956h2.477
			v0.932h0.957V18.17h2.539c-1.02,0.642-1.735,1.719-1.885,2.972h-4.766l-1.811-3.239c-0.271-0.414-0.863-0.934-2.23-0.934h-0.424
			h-9.782h-0.427c-1.364,0-1.957,0.52-2.227,0.934l-1.814,3.239h-1.058c-0.231-0.595-1.426-1.049-2.875-1.049
			c-1.568,0-2.838,0.533-2.91,1.201c-2.438,0.572-4.258,2.753-4.256,5.315L0.225,46.574c0,3.045,2.479,5.521,5.521,5.521h31.312
			c3.045,0,5.521-2.479,5.521-5.574l-0.664-18.358h5.875c2.254,0,4.082-1.826,4.082-4.08v-2.456
			C51.869,19.371,50.043,17.545,47.789,17.545z M8.092,17.213H4.744v-3.348h3.348V17.213z M8.092,12.909H4.744V9.562h3.348V12.909z
			 M8.092,8.607H4.744V5.259h3.348V8.607z M8.092,4.303H4.744V0.954h3.348V4.303z M12.396,12.909h-3.35V9.562h3.35V12.909z
			 M12.396,8.607h-3.35V5.259h3.35V8.607z M12.396,4.303h-3.35V0.954h3.35V4.303z M16.699,12.909h-3.348V9.562h3.348V12.909z
			 M16.699,8.607h-3.348V5.259h3.348V8.607z M16.699,4.303h-3.348V0.954h3.348V4.303z M21.001,12.909h-3.347V9.562h3.347V12.909z
			 M21.001,8.607h-3.347V5.259h3.347V8.607z M21.001,4.303h-3.347V0.954h3.347V4.303z M25.307,12.909h-3.351V9.562h3.351V12.909z
			 M25.307,8.607h-3.351V5.259h3.351V8.607z M25.307,4.303h-3.351V0.954h3.351V4.303z M29.609,12.909h-3.348V9.562h3.348V12.909z
			 M29.609,8.607h-3.348V5.259h3.348V8.607z M29.609,4.303h-3.348V0.954h3.348V4.303z M33.912,12.909h-3.347V9.562h3.347V12.909z
			 M33.912,8.607h-3.347V5.259h3.347V8.607z M33.912,4.303h-3.347V0.954h3.347V4.303z M34.869,0.956h3.348v3.348h-3.348V0.956z
			 M34.869,5.259h3.348v3.348h-3.348V5.259z M34.869,9.563h3.348v3.347h-3.348V9.563z M34.869,17.213v-3.348h3.348v3.348H34.869z
			 M37.056,49.217H5.745c-1.271,0-2.334-0.902-2.586-2.062h3.974c2.252,0,4.084-1.832,4.084-4.137l-0.468-12.85
			c0-2.251-1.832-4.083-4.084-4.083H3.893c0.266-1.181,1.313-2.064,2.572-2.064h29.027v0.062c0,2.067,1.541,3.772,3.537,4.041
			l0.668,18.451C39.699,48.031,38.513,49.217,37.056,49.217z M43.183,21.838c0,1.7-1.426,2.176-2.668,2.176
			c-0.188,0-0.381-0.019-0.612-0.024v1.941c0,0.096-0.078,0.172-0.173,0.172h-1.381c-0.099,0-0.185-0.061-0.185-0.153v-5.664
			c0-0.413,0.142-0.509,0.502-0.568c0.433-0.069,1.207-0.112,1.82-0.112c1.287,0,2.695,0.449,2.695,2.167L43.183,21.838
			L43.183,21.838z M49.084,26.104H47.33c-0.104,0-0.164-0.068-0.215-0.154l-0.935-1.537l-0.828,1.521
			c-0.053,0.096-0.112,0.172-0.207,0.172h-1.614c-0.068,0-0.111-0.051-0.111-0.104c0-0.025,0.012-0.043,0.02-0.069l1.762-3.177
			l-1.744-2.901c-0.008-0.018-0.019-0.044-0.019-0.062c0-0.062,0.043-0.104,0.111-0.104h1.762c0.097,0,0.156,0.088,0.207,0.164
			l0.892,1.469l0.76-1.469c0.043-0.076,0.111-0.164,0.207-0.164H49c0.068,0,0.111,0.043,0.111,0.104
			c0,0.018-0.009,0.044-0.019,0.061l-1.733,3.057l1.812,3.021c0.018,0.026,0.024,0.053,0.024,0.078
			C49.195,26.061,49.152,26.104,49.084,26.104z"/>
		<path d="M40.515,21.07c-0.062,0-0.562,0.008-0.612,0.008v1.469c0.043,0.009,0.562,0.009,0.612,0.009
			c0.604,0,0.924-0.231,0.924-0.717v-0.068C41.438,21.269,41.093,21.07,40.515,21.07z"/>
	</g>
</g>
</svg>