<?xml version="1.0" encoding="iso-8859-1"?>
<!-- Uploaded to: SVG Repo, www.svgrepo.com, Generator: SVG Repo Mixer Tools -->
<svg fill="#000000" version="1.1" id="Layer_1" xmlns="http://www.w3.org/2000/svg" xmlns:xlink="http://www.w3.org/1999/xlink" 
	 viewBox="0 0 497.616 497.616" xml:space="preserve">
<g>
	<g>
		<g>
			<path d="M440.808,208h-16V68.688L356.12,0H200.808v80h-128v128h-16v51.312l160,160V496h64v-76.688l160-160V208z M360.808,48V32
				v-4.688L397.496,64h-36.688V48z M216.808,16h128v16h-112v16h112v16h-112v16h112h64v128h-112v-32h96v-16h-96v-11.312L292.12,144
				h100.688v-16H276.12l-16-16h132.688V96H244.12l-16-16h-11.312V16z M269.496,144h-36.688v-16v-16h4.688L269.496,144z M88.808,96
				h128v16h-112v16h112v16h-112v16h112h64v48h-192V96z M424.808,248h-72v16h60.688L264.808,412.688V480h-32v-67.312L84.12,264
				h252.688v-16h-264v-24h224h128V248z"/>
			<rect x="104.808" y="176" width="160" height="16"/>
			<rect x="112.808" y="344" width="16" height="16"/>
			<polygon points="128.808,446.384 128.808,376 112.808,376 112.808,457.048 80.808,478.384 48.808,457.048 48.808,328 32.808,328 
				32.808,446.384 13.248,433.344 4.368,446.656 80.808,497.616 157.248,446.656 148.368,433.344 			"/>
			<rect x="32.808" y="296" width="16" height="16"/>
			<rect x="72.808" y="376" width="16" height="80"/>
			<rect x="72.808" y="344" width="16" height="16"/>
			<rect x="368.808" y="360" width="16" height="16"/>
			<polygon points="484.368,433.344 464.808,446.384 464.808,376 464.808,344 448.808,344 448.808,376 448.808,457.048 
				416.808,478.384 384.808,457.048 384.808,392 368.808,392 368.808,446.384 349.248,433.344 340.368,446.656 416.808,497.616 
				493.248,446.656 			"/>
			<rect x="448.808" y="312" width="16" height="16"/>
			<rect x="408.808" y="376" width="16" height="80"/>
			<rect x="408.808" y="344" width="16" height="16"/>
		</g>
	</g>
</g>
</svg>